<!DOCTYPE svg PUBLIC "-//W3C//DTD SVG 1.1//EN" "http://www.w3.org/Graphics/SVG/1.1/DTD/svg11.dtd">
<!-- Uploaded to: SVG Repo, www.svgrepo.com, Transformed by: SVG Repo Mixer Tools -->
<svg fill="#CCDAF5" height="800px" width="800px" version="1.1" id="Layer_1" xmlns="http://www.w3.org/2000/svg" xmlns:xlink="http://www.w3.org/1999/xlink" viewBox="0 0 512 512" xml:space="preserve" stroke="#CCDAF5">
<g id="SVGRepo_bgCarrier" stroke-width="0"/>
<g id="SVGRepo_tracerCarrier" stroke-linecap="round" stroke-linejoin="round"/>
<g id="SVGRepo_iconCarrier"> <g> <g> <g> <path d="M85.291,256h0.043c7.467,0,14.4-3.904,18.24-10.304c11.221-18.539,67.093-113.365,67.093-160.363 C170.667,38.272,132.395,0,85.333,0S0,38.272,0,85.333c0,45.845,55.829,141.568,67.029,160.277 C70.869,252.032,77.781,255.979,85.291,256z"/> <path d="M426.667,256c-47.061,0-85.333,38.272-85.333,85.333c0,45.845,55.829,141.568,67.029,160.277 c3.84,6.421,10.752,10.368,18.261,10.389h0.043c7.467,0,14.4-3.904,18.24-10.304C456.128,483.157,512,388.331,512,341.333 C512,294.272,473.728,256,426.667,256z"/> <path d="M85.333,341.333H160c29.419,0,53.333-23.936,53.333-53.333c0-5.888,4.8-10.667,10.667-10.667h74.667 c35.285,0,64-28.715,64-64s-28.715-64-64-64h-85.333c-11.797,0-21.333,9.557-21.333,21.333S201.536,192,213.333,192h85.333 c11.776,0,21.333,9.579,21.333,21.333c0,11.755-9.557,21.333-21.333,21.333H224c-29.419,0-53.333,23.936-53.333,53.333 c0,5.888-4.8,10.667-10.667,10.667H85.333c-35.285,0-64,28.715-64,64s28.715,64,64,64h192c11.797,0,21.333-9.557,21.333-21.333 S289.131,384,277.333,384h-192C73.557,384,64,374.421,64,362.667S73.557,341.333,85.333,341.333z"/> </g> </g> </g> </g>
</svg>