<!DOCTYPE svg PUBLIC "-//W3C//DTD SVG 1.1//EN" "http://www.w3.org/Graphics/SVG/1.1/DTD/svg11.dtd">
<!-- Uploaded to: SVG Repo, www.svgrepo.com, Transformed by: SVG Repo Mixer Tools -->
<svg fill="#CCDAF5" height="800px" width="800px" version="1.1" id="Layer_1" xmlns="http://www.w3.org/2000/svg" xmlns:xlink="http://www.w3.org/1999/xlink" viewBox="0 0 512.001 512.001" xml:space="preserve">
<g id="SVGRepo_bgCarrier" stroke-width="0"/>
<g id="SVGRepo_tracerCarrier" stroke-linecap="round" stroke-linejoin="round"/>
<g id="SVGRepo_iconCarrier"> <g> <g> <path d="M379.29,396.792c-55.467,0-103.538-32.246-126.471-78.973c27.658,16.772,59.008,25.17,90.361,25.17 c44.622,0,89.243-16.985,123.213-50.955c22.132-22.132,37.903-49.781,45.608-79.955l-32.42-8.279 c-6.219,24.358-18.961,46.688-36.847,64.574c-39.222,39.221-96.013,50.411-145.27,33.586 c76.129-18.654,132.787-87.454,132.787-169.252c0-31.3-8.399-62.002-24.288-88.787l-28.778,17.073 c12.826,21.621,19.606,46.42,19.606,71.715c0,55.466-32.246,103.538-78.973,126.471c40.641-67.021,32.054-155.735-25.785-213.573 C269.903,23.475,242.254,7.705,212.079,0l-8.278,32.419c24.358,6.219,46.688,18.961,64.574,36.847 c39.221,39.221,50.411,96.013,33.586,145.27C283.309,138.407,214.508,81.75,132.71,81.75c-31.3,0-62.002,8.399-88.787,24.288 l17.072,28.777c21.621-12.826,46.42-19.606,71.715-19.606c55.466,0,103.538,32.246,126.471,78.973 c-67.021-40.641-155.735-32.054-213.573,25.785C23.475,242.097,7.705,269.746,0,299.921l32.419,8.278 c6.219-24.358,18.961-46.688,36.847-64.574c39.222-39.221,96.013-50.411,145.27-33.586 c-76.129,18.654-132.787,87.454-132.787,169.252c0,31.3,8.399,62.002,24.288,88.787l28.777-17.072 c-12.826-21.621-19.606-46.42-19.606-71.715c0-55.466,32.246-103.538,78.973-126.471 c-40.641,67.021-32.054,155.735,25.785,213.573c22.132,22.132,49.781,37.903,79.955,45.608l8.279-32.42 c-24.358-6.219-46.688-18.961-64.574-36.847c-39.221-39.221-50.411-96.013-33.586-145.27 c18.654,76.129,87.456,132.787,169.252,132.787c31.3,0,62.002-8.399,88.787-24.288l-17.072-28.777 C429.385,390.012,404.586,396.792,379.29,396.792z M238.499,256.001c0-9.65,7.852-17.501,17.501-17.501 c9.65,0,17.501,7.851,17.501,17.501c0,9.65-7.852,17.501-17.501,17.501C246.351,273.502,238.499,265.65,238.499,256.001z"/> </g> </g> </g>
</svg>