<?xml version="1.0" encoding="UTF-8" standalone="no"?>
<svg xmlns="http://www.w3.org/2000/svg" xmlns:xlink="http://www.w3.org/1999/xlink" version="1.1" width="700" height="700" viewBox="610 108.5 700 700"><g id="document" fill="#ffffff" fill-rule="nonzero" stroke="#000000" stroke-width="0" stroke-linecap="butt" stroke-linejoin="miter" stroke-miterlimit="10" font-family="none" font-weight="none" font-size="none"><rect x="610" y="77.5" transform="scale(1,1.4)" width="700" height="500" id="Shape-1-1"/></g><g fill="none" fill-rule="nonzero" stroke="none" stroke-width="none" stroke-linecap="none" stroke-linejoin="none" stroke-miterlimit="10" font-family="none" font-weight="none" font-size="none"><g id="stage"><g id="layer1-1"><g id="Group-1"><g id="Group-1-1" fill="#ccdaf5" stroke-width="0" stroke-linecap="butt" stroke-linejoin="miter" font-family="ui-sans-serif, system-ui, -apple-system, BlinkMacSystemFont, &quot;Segoe UI&quot;, Roboto, &quot;Helvetica Neue&quot;, Arial, &quot;Noto Sans&quot;, sans-serif, &quot;Apple Color Emoji&quot;, &quot;Segoe UI Emoji&quot;, &quot;Segoe UI Symbol&quot;, &quot;Noto Color Emoji&quot;" font-weight="400" font-size="14" text-anchor="start"/><g id="Group-1-2" fill="#ccdaf5" stroke-width="1" stroke-linecap="round" stroke-linejoin="round" font-family="ui-sans-serif, system-ui, -apple-system, BlinkMacSystemFont, &quot;Segoe UI&quot;, Roboto, &quot;Helvetica Neue&quot;, Arial, &quot;Noto Sans&quot;, sans-serif, &quot;Apple Color Emoji&quot;, &quot;Segoe UI Emoji&quot;, &quot;Segoe UI Symbol&quot;, &quot;Noto Color Emoji&quot;" font-weight="400" font-size="14" text-anchor="start"/><g id="Group-1-3" stroke-width="1" stroke-linecap="butt" stroke-linejoin="miter"><path d="M1080.02335,362.48132c-216.04203,48.00934 -266.45183,196.11815 -316.38155,320.22229l45.36883,15.84308l24.00467,-55.21074c9.90928,3.91799 20.34478,6.34485 30.96602,7.2014c264.05137,0 336.06538,-408.07938 336.06538,-408.07938c-24.00467,48.00934 -192.03736,54.01051 -312.06071,78.01518c-120.02335,24.00467 -168.03269,126.02452 -168.03269,174.03386c3.31812,33.92097 18.1417,65.68577 42.00817,90.01751c78.01518,-222.04319 318.06187,-222.04319 318.06187,-222.04319z" id="Path-1" fill="#ccdaf5"/><rect x="27.99222" y="7.10045" transform="scale(24.00467,24.00467)" width="24" height="24" id="Shape-1" fill="none"/></g></g></g></g></g></svg>